<svg width="56" height="60" xmlns="http://www.w3.org/2000/svg" viewBox="0 0 13.38 14.25"><defs><style>.cls-1{fill:#fff;isolation:isolate;}</style></defs><title>cooking</title><path class="cls-1" d="M688.14,377.49a.36.36,0,0,1,0-.49.37.37,0,0,1,.5,0h0l0,.05a.34.34,0,0,1,0,.49.35.35,0,0,1-.24.1.39.39,0,0,1-.25-.1l0-.05Zm0,3.87a1,1,0,0,1,1,1,1,1,0,1,1-2,0A1,1,0,0,1,688.1,381.36Zm0,.69a.31.31,0,0,0-.31.31h0a.31.31,0,0,0,.31.31h0a.31.31,0,0,0,.31-.31h0a.31.31,0,0,0-.31-.31Zm1.58,4.34v.41a1,1,0,0,1-1,1h-.29v1.88a1.49,1.49,0,0,1-1.49,1.49h-7.85a1.49,1.49,0,0,1-1.49-1.49v-1.88h-.29a1,1,0,0,1-1-1v-.42a1,1,0,0,1,1-1h.29v-1a.35.35,0,0,1,.35-.34h10.13a.35.35,0,0,1,.35.34h0v1h.29a1,1,0,0,1,1,1h0Zm-12.1-.29h-.29a.29.29,0,0,0-.29.29v.41a.29.29,0,0,0,.29.29h.29v-1Zm10.13-1.37h-9.44v4.93a.79.79,0,0,0,.79.8h7.85a.79.79,0,0,0,.79-.8v-4.93Zm1.27,1.66a.29.29,0,0,0-.29-.29h-.29v1h.29a.29.29,0,0,0,.29-.29v-.41Zm-1.79-6.71a.35.35,0,0,0,.25-.1l0-.05a.34.34,0,0,0,0-.49.36.36,0,0,0-.49,0l0,0a.34.34,0,0,0,0,.49.33.33,0,0,0,.23.1Zm-2.88,3.67a.35.35,0,0,0,.35.34h0a.35.35,0,0,0,.35-.34h0a.5.5,0,1,1,1,0,.35.35,0,0,0,.35.34h0a.35.35,0,0,0,.35-.34h0a1.19,1.19,0,0,0-1.19-1.2h0a1.19,1.19,0,0,0-1.19,1.19Zm-6.48-.53a.34.34,0,0,1,.25-.41l3.77-.89-.06-.29a1,1,0,0,1,.73-1.18l.4-.1a1,1,0,0,1,1.19.73l.06.29,3.77-.9a.36.36,0,0,1,.42.26.35.35,0,0,1-.26.42l-9.86,2.33h-.08A.33.33,0,0,1,677.83,382.82Zm4.63-1.75.07.29,1-.23-.07-.28a.29.29,0,0,0-.28-.23h-.07l-.4.09a.29.29,0,0,0-.22.35h0Z" transform="translate(-676.3 -376.9)"/></svg>