<svg enable-background="new 0 0 60.017 60.017" viewBox="0 0 60.017 60.017" xmlns="http://www.w3.org/2000/svg"><path d="m59.144 3.731-2.85-2.851c-1.164-1.161-3.057-1.162-4.221.001l-3.126 3.126h-48.947v56h56v-48.91l.305-.305 2.839-2.839c1.164-1.164 1.164-3.058 0-4.222zm-39.097 33.028 3.22 3.22-4.428 1.208zm32.015-24.553-4.242-4.242 1.414-1.414 4.243 4.242zm-1.414 1.414-25.456 25.456-4.242-4.242 25.456-25.456zm3.352-.523v44.91h-52v-52h44.947l-28.118 28.12-.188.188-2.121 7.779-1.226 1.226c-.391.391-.391 1.023 0 1.414.195.195.451.293.707.293s.512-.098.707-.293l1.226-1.226 7.779-2.123 26.351-26.35.447-.447zm3.73-6.558-2.839 2.839-4.243-4.243 2.839-2.839c.384-.384 1.009-.383 1.393 0l2.85 2.85c.384.383.384 1.009 0 1.393z"/></svg>