<svg enable-background="new 0 0 59 59" viewBox="0 0 59 59" xmlns="http://www.w3.org/2000/svg"><path d="m52.5 6h-14.044c-.11-1.25-.495-3.358-1.813-4.711-.834-.855-1.892-1.289-3.144-1.289h-9.999c-1.252 0-2.31.434-3.144 1.289-1.318 1.353-1.703 3.461-1.813 4.711h-12.043c-.552 0-1 .447-1 1s.448 1 1 1h46c.552 0 1-.447 1-1s-.448-1-1-1zm-30.708-3.319c.448-.458 1.007-.681 1.708-.681h9.999c.701 0 1.26.223 1.708.681.805.823 1.128 2.271 1.24 3.319h-15.894c.112-1.048.435-2.496 1.239-3.319z"/><path d="m10.456 54.021c.037 1.722 1.109 4.979 4.908 4.979h28.272c3.799 0 4.871-3.257 4.907-4.958l1.833-44.042h-41.752zm37.835-42.021-1.747 41.979c-.006.309-.144 3.021-2.908 3.021h-28.272c-2.734 0-2.898-2.717-2.909-3.042l-1.746-41.958z"/><path d="m17.5 54h24c.552 0 1-.447 1-1s-.448-1-1-1h-24c-.552 0-1 .447-1 1s.448 1 1 1z"/><path d="m17.5 49h24c.552 0 1-.447 1-1s-.448-1-1-1h-24c-.552 0-1 .447-1 1s.448 1 1 1z"/><path d="m17.5 44h24c.552 0 1-.447 1-1s-.448-1-1-1h-24c-.552 0-1 .447-1 1s.448 1 1 1z"/></svg>